<mxfile host="www.draw.io" modified="2020-05-28T04:22:57.304Z" agent="5.0 (X11; Linux x86_64) AppleWebKit/537.36 (KHTML, like Gecko) Chrome/80.0.3987.149 Safari/537.36" etag="sBbLNLTa7vEzKBZyZGmM" version="13.1.3" type="github">
  <diagram name="Page-1" id="5f0bae14-7c28-e335-631c-24af17079c00">
    <mxGraphModel dx="984" dy="571" grid="1" gridSize="10" guides="1" tooltips="1" connect="1" arrows="1" fold="1" page="1" pageScale="1" pageWidth="1100" pageHeight="850" background="#ffffff" math="0" shadow="0">
      <root>
        <mxCell id="0" />
        <mxCell id="1" parent="0" />
        <mxCell id="2BbbxaQr6hZSvzHqME9C-2" value="&lt;font style=&quot;font-size: 24px&quot;&gt;Server&lt;/font&gt;" style="rounded=0;whiteSpace=wrap;html=1;" parent="1" vertex="1">
          <mxGeometry x="10" y="110" width="295" height="50" as="geometry" />
        </mxCell>
        <mxCell id="2BbbxaQr6hZSvzHqME9C-3" value="&lt;font style=&quot;font-size: 24px&quot;&gt;Client&lt;/font&gt;" style="rounded=0;whiteSpace=wrap;html=1;" parent="1" vertex="1">
          <mxGeometry x="275" y="390" width="260" height="80" as="geometry" />
        </mxCell>
        <mxCell id="2BbbxaQr6hZSvzHqME9C-6" value="&lt;font style=&quot;font-size: 24px&quot;&gt;COS&lt;/font&gt;" style="shape=dataStorage;whiteSpace=wrap;html=1;" parent="1" vertex="1">
          <mxGeometry x="635" y="110" width="220" height="50" as="geometry" />
        </mxCell>
        <mxCell id="2BbbxaQr6hZSvzHqME9C-30" value="&lt;span style=&quot;text-align: center&quot;&gt;&lt;font style=&quot;font-size: 18px&quot;&gt;1.请求文件操作&lt;/font&gt;&lt;/span&gt;" style="text;whiteSpace=wrap;html=1;" parent="1" vertex="1">
          <mxGeometry x="590" y="370" width="210" height="30" as="geometry" />
        </mxCell>
        <mxCell id="2BbbxaQr6hZSvzHqME9C-35" value="&lt;font style=&quot;font-size: 18px&quot;&gt;1.client与cos直连&lt;br&gt;&lt;/font&gt;" style="shape=note;whiteSpace=wrap;html=1;backgroundOutline=1;darkOpacity=0.05;" parent="1" vertex="1">
          <mxGeometry x="10" y="10" width="200" height="70" as="geometry" />
        </mxCell>
        <mxCell id="sp5xluREkhG6h_Tq_4LH-2" value="&lt;font style=&quot;font-size: 18px&quot;&gt;secretId&lt;/font&gt;" style="ellipse;shape=cloud;whiteSpace=wrap;html=1;" parent="1" vertex="1">
          <mxGeometry x="220" y="360" width="120" height="80" as="geometry" />
        </mxCell>
        <mxCell id="sp5xluREkhG6h_Tq_4LH-4" value="&lt;font style=&quot;font-size: 18px&quot;&gt;cos-sdk&lt;/font&gt;" style="rounded=0;whiteSpace=wrap;html=1;" parent="1" vertex="1">
          <mxGeometry x="535" y="410" width="90" height="40" as="geometry" />
        </mxCell>
        <mxCell id="zxILmdE_aTLb1eIWgR9r-2" value="" style="endArrow=classic;html=1;entryX=1;entryY=0.75;entryDx=0;entryDy=0;exitX=0.617;exitY=1.04;exitDx=0;exitDy=0;exitPerimeter=0;" parent="1" source="2BbbxaQr6hZSvzHqME9C-6" target="sp5xluREkhG6h_Tq_4LH-4" edge="1">
          <mxGeometry width="50" height="50" relative="1" as="geometry">
            <mxPoint x="843.2000122070312" y="250" as="sourcePoint" />
            <mxPoint x="230" y="180" as="targetPoint" />
            <Array as="points">
              <mxPoint x="771" y="440" />
            </Array>
          </mxGeometry>
        </mxCell>
        <mxCell id="zxILmdE_aTLb1eIWgR9r-5" value="" style="endArrow=classic;html=1;entryX=0.435;entryY=1.025;entryDx=0;entryDy=0;entryPerimeter=0;exitX=1;exitY=0.25;exitDx=0;exitDy=0;" parent="1" source="sp5xluREkhG6h_Tq_4LH-4" target="2BbbxaQr6hZSvzHqME9C-6" edge="1">
          <mxGeometry width="50" height="50" relative="1" as="geometry">
            <mxPoint x="270" y="180" as="sourcePoint" />
            <mxPoint x="480" y="390" as="targetPoint" />
            <Array as="points">
              <mxPoint x="731" y="420" />
            </Array>
          </mxGeometry>
        </mxCell>
        <mxCell id="4gBE_5m87CNYdzL72oEc-1" value="&lt;span style=&quot;text-align: center&quot;&gt;&lt;font style=&quot;font-size: 18px&quot;&gt;2.返回结果&lt;/font&gt;&lt;/span&gt;" style="text;whiteSpace=wrap;html=1;" parent="1" vertex="1">
          <mxGeometry x="850" y="190" width="210" height="80" as="geometry" />
        </mxCell>
        <mxCell id="4XJzgC15svitscccRdW6-1" value="" style="endArrow=classic;html=1;" edge="1" parent="1">
          <mxGeometry width="50" height="50" relative="1" as="geometry">
            <mxPoint x="275" y="448" as="sourcePoint" />
            <mxPoint x="160" y="160" as="targetPoint" />
            <Array as="points">
              <mxPoint x="160" y="448" />
            </Array>
          </mxGeometry>
        </mxCell>
        <mxCell id="4XJzgC15svitscccRdW6-3" value="&lt;font style=&quot;font-size: 18px&quot;&gt;３.上报给服务端&lt;/font&gt;" style="edgeLabel;html=1;align=center;verticalAlign=middle;resizable=0;points=[];" vertex="1" connectable="0" parent="4XJzgC15svitscccRdW6-1">
          <mxGeometry x="0.0819" y="-1" relative="1" as="geometry">
            <mxPoint x="-71" y="65" as="offset" />
          </mxGeometry>
        </mxCell>
      </root>
    </mxGraphModel>
  </diagram>
</mxfile>
